HIERARCHY
ROOT Hips
{
	OFFSET 0.000000 0.000000 0.000000
	CHANNELS 6 Xposition Yposition Zposition Xrotation Yrotation Zrotation
	JOINT LeftUpLeg_virtual
	{
		OFFSET 0.000000 0.000000 0.000000
		CHANNELS 3 Xrotation Yrotation Zrotation
		JOINT LeftUpLeg
		{
			OFFSET 11.394100 -6.187798 -0.413800
			CHANNELS 3 Xrotation Yrotation Zrotation
			JOINT LeftLeg
			{
				OFFSET 0.430247 -32.302673 3.732800
				CHANNELS 3 Xrotation Yrotation Zrotation
				JOINT LeftFoot
				{
					OFFSET -0.430247 -48.264931 -6.423300
					CHANNELS 3 Xrotation Yrotation Zrotation
					JOINT LeftToeBase
					{
						OFFSET 4.230900 -16.068199 23.438400
						CHANNELS 3 Xrotation Yrotation Zrotation
						JOINT LeftToe_End
						{
							OFFSET 4.510700 0.695400 19.974600
							CHANNELS 3 Xrotation Yrotation Zrotation
							End Site
							{
								OFFSET 0 0 0
							}
						}
					}
				}
			}
		}
	}
	JOINT RightUpLeg_virtual
	{
		OFFSET 0.000000 0.000000 0.000000
		CHANNELS 3 Xrotation Yrotation Zrotation
		JOINT RightUpLeg
		{
			OFFSET -11.333700 -6.187798 -0.413800
			CHANNELS 3 Xrotation Yrotation Zrotation
			JOINT RightLeg
			{
				OFFSET -0.430392 -32.302628 3.733000
				CHANNELS 3 Xrotation Yrotation Zrotation
				JOINT RightFoot
				{
					OFFSET 0.430392 -48.264973 -6.423500
					CHANNELS 3 Xrotation Yrotation Zrotation
					JOINT RightToeBase
					{
						OFFSET -4.230900 -16.068199 23.438400
						CHANNELS 3 Xrotation Yrotation Zrotation
						JOINT RightToe_End
						{
							OFFSET -4.510700 0.695400 19.974600
							CHANNELS 3 Xrotation Yrotation Zrotation
							End Site
							{
								OFFSET 0 0 0
							}
						}
					}
				}
			}
		}
	}
	JOINT Spine_virtual
	{
		OFFSET 0.000000 0.000000 0.000000
		CHANNELS 3 Xrotation Yrotation Zrotation
		JOINT Spine
		{
			OFFSET -0.002400 12.777504 0.315300
			CHANNELS 3 Xrotation Yrotation Zrotation
			JOINT Spine1
			{
				OFFSET -0.002067 5.816869 0.032633
				CHANNELS 3 Xrotation Yrotation Zrotation
				JOINT Spine1_split
				{
					OFFSET -0.002067 5.816869 0.032633
					CHANNELS 3 Xrotation Yrotation Zrotation
					JOINT Spine2
					{
						OFFSET -0.002067 5.816869 0.032633
						CHANNELS 3 Xrotation Yrotation Zrotation
						JOINT Neck_virtual
						{
							OFFSET 0.000000 0.000000 0.000000
							CHANNELS 3 Xrotation Yrotation Zrotation
							JOINT Neck
							{
								OFFSET -0.003700 21.199493 -0.826900
								CHANNELS 3 Xrotation Yrotation Zrotation
								JOINT Head
								{
									OFFSET 0.000000 20.442200 4.834800
									CHANNELS 3 Xrotation Yrotation Zrotation
									JOINT HeadTop_End
									{
										OFFSET 0.000000 34.668396 4.968400
										CHANNELS 3 Xrotation Yrotation Zrotation
										End Site
										{
											OFFSET 0 0 0
										}
									}
								}
							}
						}
						JOINT LeftShoulder_virtual
						{
							OFFSET 0.000000 0.000000 0.000000
							CHANNELS 3 Xrotation Yrotation Zrotation
							JOINT LeftShoulder
							{
								OFFSET 3.288150 8.794197 -1.372250
								CHANNELS 3 Xrotation Yrotation Zrotation
								JOINT LeftShoulder_split
								{
									OFFSET 3.288150 8.794197 -1.372250
									CHANNELS 3 Xrotation Yrotation Zrotation
									JOINT LeftArm
									{
										OFFSET 11.953299 -2.279007 -0.146200
										CHANNELS 3 Xrotation Yrotation Zrotation
										JOINT LeftForeArm
										{
											OFFSET 18.448900 0.000000 0.000000
											CHANNELS 3 Xrotation Yrotation Zrotation
											JOINT LeftHand
											{
												OFFSET 29.527798 0.000000 0.000000
												CHANNELS 3 Xrotation Yrotation Zrotation
												End Site
												{
													OFFSET 0 0 0
												}
											}
										}
									}
								}
							}
						}
						JOINT RightShoulder_virtual
						{
							OFFSET 0.000000 0.000000 0.000000
							CHANNELS 3 Xrotation Yrotation Zrotation
							JOINT RightShoulder
							{
								OFFSET -3.249400 8.794197 -1.372250
								CHANNELS 3 Xrotation Yrotation Zrotation
								JOINT RightShoulder_split
								{
									OFFSET -3.249400 8.794197 -1.372250
									CHANNELS 3 Xrotation Yrotation Zrotation
									JOINT RightArm
									{
										OFFSET -11.953299 -2.279007 -0.146200
										CHANNELS 3 Xrotation Yrotation Zrotation
										JOINT RightForeArm
										{
											OFFSET -18.448900 0.000000 0.000000
											CHANNELS 3 Xrotation Yrotation Zrotation
											JOINT RightHand
											{
												OFFSET -29.527802 0.000000 0.000000
												CHANNELS 3 Xrotation Yrotation Zrotation
												End Site
												{
													OFFSET 0 0 0
												}
											}
										}
									}
								}
							}
						}
					}
				}
			}
		}
	}
}
MOTION
Frames: 11
Frame Time: 0.03333333
0.608874 92.961334 -3.025841 0.000000 0.000000 0.000000 3.386271 -10.032274 -1.328339 -49.463417 2.492508 9.328794 36.077291 3.047694 3.933705 7.675856 -1.458193 -4.441669 1.777266 -0.993494 -1.818761 0.000000 0.000000 0.000000 3.029893 -10.329596 -1.244013 -12.470059 -12.097085 -11.396700 28.313057 -9.051082 -0.332381 -16.748373 -5.815547 15.572442 -0.131695 0.543839 1.337775 0.000000 0.000000 0.000000 3.808674 -9.357575 -1.637769 21.649043 4.534277 1.799488 1.778561 2.023280 -0.461031 0.466265 -0.164275 0.217732 0.000000 0.000000 0.000000 2.463217 2.058484 -0.169038 -5.479786 16.329364 1.452540 7.956843 48.286596 -21.561661 0.000000 0.000000 0.000000 2.704891 2.351306 -0.404451 2.139993 -34.974711 5.723374 0.324287 0.523286 -4.533105 -25.085500 -15.860932 -66.801463 -0.288052 -45.718117 -7.799751 0.000000 0.000000 0.000000 3.214228 2.096882 -0.383147 8.540971 21.159538 -10.306559 -1.103816 3.502211 0.446040 -42.695273 14.722988 82.139145 -0.662048 53.240655 2.863160 0.000000 0.000000 0.000000 
0.672198 92.926506 -2.647377 0.000000 0.000000 0.000000 3.477359 -9.284665 -1.368204 -49.835024 2.617539 9.032052 36.374251 2.779410 4.019157 7.483217 -1.509108 -4.167131 1.785595 -1.012604 -1.806966 0.000000 0.000000 0.000000 3.100496 -9.679689 -1.280237 -11.557742 -12.073923 -11.357467 27.519860 -9.603862 -0.298517 -16.621349 -5.932406 16.122460 -0.116198 0.489244 1.426606 0.000000 0.000000 0.000000 3.946066 -8.641305 -1.674440 21.453062 4.572692 1.374085 1.723823 2.124225 -0.644437 0.467461 -0.142324 0.186682 0.000000 0.000000 0.000000 2.429765 2.153549 -0.381065 -5.530621 16.191083 1.769887 7.013453 47.937420 -20.631259 0.000000 0.000000 0.000000 2.706219 2.435826 -0.660038 1.998388 -35.514965 5.684972 0.074571 0.475732 -4.837813 -24.672236 -15.806057 -66.623625 -0.232190 -45.523207 -6.696203 0.000000 0.000000 0.000000 3.222285 2.236393 -0.617045 8.384491 20.296063 -10.035416 -0.849231 3.652240 0.412082 -43.003882 15.281529 83.079723 -0.677991 52.674542 2.452241 0.000000 0.000000 0.000000 
0.726091 92.893616 -2.275169 0.000000 0.000000 0.000000 3.582196 -8.642672 -1.353190 -50.144749 2.714759 8.740561 36.679376 2.581327 4.083010 7.257414 -1.543773 -3.940051 1.797171 -1.028854 -1.804875 0.000000 0.000000 0.000000 3.180601 -9.146778 -1.258353 -10.805552 -12.003248 -11.361151 26.889951 -10.086577 -0.283326 -16.522246 -6.041290 16.651281 -0.122221 0.441895 1.488873 0.000000 0.000000 0.000000 4.099221 -8.036605 -1.645800 21.258262 4.558471 0.915032 1.678983 2.205118 -0.821602 0.478658 -0.114226 0.174119 0.000000 0.000000 0.000000 2.407081 2.230937 -0.590950 -5.629738 15.946166 2.120918 5.800853 47.403774 -19.400357 0.000000 0.000000 0.000000 2.708904 2.502713 -0.908055 1.857470 -36.021868 5.656415 -0.131470 0.463345 -5.075640 -24.057600 -15.910092 -66.400777 -0.211682 -45.491580 -5.630513 0.000000 0.000000 0.000000 3.227883 2.355596 -0.838596 8.272974 19.684460 -9.834804 -0.679976 3.754407 0.430751 -43.219077 15.632561 83.881068 -0.768766 52.284651 2.188610 0.000000 0.000000 0.000000 
0.771849 92.860489 -1.923569 0.000000 0.000000 0.000000 3.707568 -8.103537 -1.292269 -50.412189 2.760107 8.449623 37.012170 2.447759 4.135720 7.017211 -1.562838 -3.769044 1.826406 -1.041190 -1.817196 0.000000 0.000000 0.000000 3.279339 -8.710330 -1.189827 -10.191646 -11.894377 -11.393181 26.378440 -10.504128 -0.288105 -16.479537 -6.147904 17.138601 -0.135164 0.406385 1.521404 0.000000 0.000000 0.000000 4.268444 -7.540887 -1.574400 21.071202 4.484702 0.430235 1.640913 2.262688 -0.988663 0.462339 -0.061633 0.175858 0.000000 0.000000 0.000000 2.384314 2.287666 -0.796388 -5.787686 15.621225 2.521910 4.434633 46.764410 -17.915644 0.000000 0.000000 0.000000 2.712591 2.549942 -1.139565 1.734843 -36.521151 5.678010 -0.289943 0.490605 -5.246162 -23.271704 -16.156032 -66.155949 -0.223961 -45.601628 -4.617836 0.000000 0.000000 0.000000 3.232049 2.450950 -1.040420 8.198422 19.317809 -9.697407 -0.574417 3.814239 0.458270 -43.302815 15.767727 84.510805 -0.896299 52.007273 2.034515 0.000000 0.000000 0.000000 
0.817879 92.830872 -1.585571 0.000000 0.000000 0.000000 3.862212 -7.663921 -1.199913 -50.651020 2.738154 8.158233 37.379908 2.374167 4.187811 6.760254 -1.560992 -3.657198 1.886714 -1.049774 -1.845345 0.000000 0.000000 0.000000 3.406701 -8.351157 -1.089572 -9.693598 -11.758373 -11.436740 25.941728 -10.870548 -0.312458 -16.489229 -6.258304 17.560671 -0.122933 0.387345 1.527843 0.000000 0.000000 0.000000 4.451020 -7.161349 -1.477613 20.903169 4.354096 -0.065383 1.610565 2.293409 -1.142372 0.440630 0.013252 0.183330 0.000000 0.000000 0.000000 2.358166 2.322992 -0.993475 -6.008727 15.245950 2.996906 3.022784 46.099751 -16.251827 0.000000 0.000000 0.000000 2.717642 2.572110 -1.349581 1.637873 -37.038241 5.760884 -0.412495 0.614494 -5.366102 -22.374969 -16.511480 -65.925239 -0.267212 -45.793608 -3.660970 0.000000 0.000000 0.000000 3.235301 2.520095 -1.223266 8.155369 19.169063 -9.624221 -0.523605 3.845443 0.468370 -43.263723 15.686059 84.948333 -1.034584 51.827247 1.954340 0.000000 0.000000 0.000000 
0.864845 92.804878 -1.276367 0.000000 0.000000 0.000000 4.040684 -7.311166 -1.093131 -50.861188 2.657597 7.875171 37.756384 2.352696 4.244075 6.482450 -1.542885 -3.609314 1.966344 -1.054178 -1.879112 0.000000 0.000000 0.000000 3.561891 -8.059730 -0.974656 -9.305375 -11.613129 -11.483189 25.549050 -11.195469 -0.351166 -16.524502 -6.371984 17.911884 -0.075140 0.385384 1.511650 0.000000 0.000000 0.000000 4.636329 -6.892514 -1.367967 20.765923 4.175575 -0.554167 1.580081 2.295980 -1.282881 0.441131 0.097453 0.181262 0.000000 0.000000 0.000000 2.327011 2.335631 -1.180693 -6.290933 14.849062 3.540241 1.654917 45.475283 -14.506195 0.000000 0.000000 0.000000 2.723013 2.569000 -1.538808 1.568456 -37.594276 5.888769 -0.566920 0.813365 -5.453281 -21.390559 -16.944408 -65.714432 -0.341044 -46.008820 -2.758441 0.000000 0.000000 0.000000 3.239323 2.559094 -1.388467 8.136930 19.197823 -9.613267 -0.504510 3.923916 0.414431 -43.128482 15.448769 85.232476 -1.161052 51.756786 1.919663 0.000000 0.000000 0.000000 
0.910657 92.785614 -0.993198 0.000000 0.000000 0.000000 4.236207 -7.042044 -0.982088 -51.045139 2.539372 7.615157 38.110895 2.366918 4.303712 6.202558 -1.520630 -3.635761 2.034362 -1.054614 -1.903678 0.000000 0.000000 0.000000 3.736711 -7.826409 -0.856529 -9.031062 -11.480288 -11.531869 25.181958 -11.477932 -0.399063 -16.540638 -6.480317 18.212903 -0.015982 0.398756 1.474234 0.000000 0.000000 0.000000 4.823869 -6.732967 -1.252116 20.667225 3.965564 -1.018577 1.545047 2.273987 -1.410723 0.424318 0.174405 0.160464 0.000000 0.000000 0.000000 2.298139 2.329560 -1.356710 -6.625462 14.466103 4.134234 0.374179 44.946101 -12.790211 0.000000 0.000000 0.000000 2.731990 2.542793 -1.705910 1.522824 -38.197297 6.039838 -0.768059 1.075700 -5.531846 -20.374804 -17.388082 -65.549175 -0.466626 -46.184547 -1.917244 0.000000 0.000000 0.000000 3.244399 2.570250 -1.537580 8.140132 19.360849 -9.661299 -0.483047 4.072840 0.324180 -42.928647 15.119054 85.413578 -1.254692 51.781112 1.909413 0.000000 0.000000 0.000000 
0.954123 92.775993 -0.749920 0.000000 0.000000 0.000000 4.437278 -6.844131 -0.870715 -51.213571 2.408483 7.390228 38.422123 2.403000 4.361994 5.952890 -1.502522 -3.733242 2.067852 -1.053282 -1.907257 0.000000 0.000000 0.000000 3.926745 -7.647629 -0.739156 -8.872637 -11.372711 -11.590104 24.849616 -11.713343 -0.449044 -16.511769 -6.572793 18.472795 0.022772 0.423979 1.419261 0.000000 0.000000 0.000000 5.005301 -6.681347 -1.125392 20.607685 3.742182 -1.444408 1.506132 2.233998 -1.525110 0.418019 0.223289 0.143875 0.000000 0.000000 0.000000 2.277133 2.311906 -1.518836 -6.999098 14.120147 4.730250 -0.789891 44.542887 -11.218435 0.000000 0.000000 0.000000 2.741270 2.503101 -1.852640 1.489192 -38.834208 6.173716 -1.015601 1.365634 -5.601049 -19.388942 -17.803154 -65.445220 -0.621775 -46.274173 -1.123721 0.000000 0.000000 0.000000 3.252325 2.561676 -1.672042 8.157698 19.609214 -9.756641 -0.422707 4.244366 0.230377 -42.686107 14.759064 85.530935 -1.310089 51.892232 1.907763 0.000000 0.000000 0.000000 
0.988340 92.777344 -0.539375 0.000000 0.000000 0.000000 4.629749 -6.708916 -0.757786 -51.366192 2.292695 7.209853 38.681796 2.452331 4.411914 5.756759 -1.485149 -3.876711 2.085046 -1.051866 -1.897447 0.000000 0.000000 0.000000 4.114191 -7.526660 -0.621087 -8.827585 -11.300784 -11.669750 24.562124 -11.900281 -0.494646 -16.441558 -6.643016 18.682470 0.063471 0.458277 1.352073 0.000000 0.000000 0.000000 5.184788 -6.723220 -0.987099 20.584607 3.525076 -1.825590 1.462601 2.188508 -1.629209 0.400806 0.254608 0.128609 0.000000 0.000000 0.000000 2.267007 2.292677 -1.663428 -7.385344 13.820139 5.262204 -1.844222 44.255220 -9.868647 0.000000 0.000000 0.000000 2.749899 2.464565 -1.979375 1.454276 -39.483162 6.266038 -1.277422 1.628860 -5.635374 -18.468570 -18.155041 -65.411738 -0.789112 -46.242344 -0.362504 0.000000 0.000000 0.000000 3.258761 2.546647 -1.791884 8.187347 19.901112 -9.891531 -0.321909 4.399768 0.151039 -42.412596 14.415580 85.604830 -1.317297 52.036677 1.902069 0.000000 0.000000 0.000000 
1.010190 92.793060 -0.365734 0.000000 0.000000 0.000000 4.811051 -6.637032 -0.639613 -51.498001 2.205771 7.073736 38.882583 2.516387 4.448357 5.607681 -1.453448 -4.035546 2.120597 -1.050412 -1.889005 0.000000 0.000000 0.000000 4.291385 -7.457834 -0.497984 -8.886290 -11.262683 -11.777978 24.331697 -12.037390 -0.530997 -16.345331 -6.690306 18.831253 0.124579 0.498953 1.279658 0.000000 0.000000 0.000000 5.360035 -6.836233 -0.837788 20.584974 3.330716 -2.162931 1.421781 2.150774 -1.725434 0.377101 0.228846 0.107552 0.000000 0.000000 0.000000 2.267290 2.283151 -1.788606 -7.764737 13.564408 5.676080 -2.810951 44.030975 -8.765651 0.000000 0.000000 0.000000 2.755034 2.443040 -2.090173 1.410642 -40.116577 6.311877 -1.528952 1.861839 -5.638013 -17.703236 -18.432807 -65.477042 -0.923042 -46.046171 0.397081 0.000000 0.000000 0.000000 3.267499 2.538321 -1.902051 8.227056 20.195676 -10.056061 -0.171509 4.480477 0.113812 -42.146311 14.103226 85.626462 -1.294904 52.173855 1.894190 0.000000 0.000000 0.000000 
1.015158 92.818909 -0.230503 0.000000 0.000000 0.000000 4.973894 -6.624405 -0.518925 -51.591427 2.155961 6.981250 39.015232 2.598136 4.469742 5.478155 -1.394546 -4.182485 2.174950 -1.047719 -1.891670 0.000000 0.000000 0.000000 4.442192 -7.438356 -0.372345 -9.033092 -11.250224 -11.914505 24.175876 -12.121940 -0.552807 -16.230551 -6.715455 18.924755 0.183467 0.540651 1.205899 0.000000 0.000000 0.000000 5.527909 -6.984597 -0.683175 20.601299 3.170488 -2.460437 1.387438 2.129570 -1.818752 0.356755 0.182210 0.106513 0.000000 0.000000 0.000000 2.272103 2.287391 -1.895193 -8.106924 13.319785 5.927118 -3.722239 43.741525 -7.857930 0.000000 0.000000 0.000000 2.753641 2.445555 -2.190699 1.359674 -40.694872 6.325217 -1.725879 2.035566 -5.590438 -17.159095 -18.661219 -65.654702 -0.981106 -45.669117 1.183227 0.000000 0.000000 0.000000 3.279675 2.546763 -2.006114 8.278245 20.460021 -10.249596 0.019429 4.490684 0.108719 -41.927782 13.821624 85.593574 -1.260141 52.264963 1.884839 0.000000 0.000000 0.000000 
